<svg xmlns="http://www.w3.org/2000/svg" xmlns:xlink="http://www.w3.org/1999/xlink" viewBox="0,0,256,256" width="32px" height="32px" fill-rule="nonzero"><g transform="translate(16,16) scale(0.875,0.875)"><g fill="#ffffff" fill-rule="nonzero" stroke="none" stroke-width="1" stroke-linecap="butt" stroke-linejoin="miter" stroke-miterlimit="10" stroke-dasharray="" stroke-dashoffset="0" font-family="none" font-weight="none" font-size="none" text-anchor="none" style="mix-blend-mode: normal"><g transform="scale(8,8)"><path d="M18.68359,15.40625c0,-1.97656 3.21094,-2.14844 3.21094,-6.01172c0,-2.79688 -1.94531,-4.13672 -2.14453,-4.25781h1.9375l1.9375,-1.13672h-6.27734c-6.38672,0 -7.41016,4.46875 -7.41016,5.94922c0,2.20703 1.72656,4.94922 5.19922,4.94922c0.31641,0 0.65234,-0.01953 1.00781,-0.05859c-0.05859,0.16406 -0.30859,0.72656 -0.30859,1.23438c0,1.0625 0.67969,1.73828 0.91406,2.14844c-3.80078,-0.03516 -8.375,1.61328 -8.375,5.28125c0,1.33984 1.15234,4.49609 6.56641,4.49609c6.17578,0 8.04688,-3.8125 8.04688,-5.94922c-0.00391,-4.08203 -4.30469,-4.75781 -4.30469,-6.64453zM16.58594,14.04297c-2.16016,0 -3.98437,-2.71875 -3.98437,-5.625c0,-0.86328 0.41406,-3.37109 2.80469,-3.37109c3.07813,0 3.82813,4.5625 3.82813,5.80469c0,0.28906 0.20313,3.19141 -2.64844,3.19141zM16.4375,26.67969c-1.98047,0 -5.39844,-0.84375 -5.39844,-3.84375c0,-1.03906 0.60547,-3.75391 5.86328,-3.75391c0.26953,0 0.50391,0.01172 0.70313,0.03125c1.09375,0.81641 3.35938,1.99609 3.35938,4.16797c0,0.98438 -0.58594,3.39844 -4.52734,3.39844z"></path></g></g></g></svg>